<!--?xml version="1.0" encoding="utf-8"?-->
<!-- Generator: Adobe Illustrator 18.1.1, SVG Export Plug-In . SVG Version: 6.00 Build 0)  -->

<svg version="1.1" id="_x31_0" xmlns="http://www.w3.org/2000/svg" xmlns:xlink="http://www.w3.org/1999/xlink" x="0px" y="0px" viewBox="0 0 512 512" style="width: 256px; height: 256px; opacity: 1;" xml:space="preserve">
<style type="text/css">
	.st0{fill:#374149;}
</style>
<g>
	<polygon class="st0" points="221.18,250.621 153.547,183.836 91.934,245.453 91.668,245.719 91.668,245.719 91.614,245.773 
		221.207,374.516 512,83.02 450.121,21.14 450.121,21.136 450.121,21.136 450.062,21.082 407.187,64.109 348.152,123.258 	" style="fill: rgb(255, 255, 255);"></polygon>
	<path class="st0" d="M439.379,211.941v-0.113l-50.34,50.484V407.5c0,18.266-14.883,33.078-33.078,33.078H83.418
		c-18.266,0-33.078-14.813-33.078-33.078V259.578v-13.66V134.957c0-18.192,14.812-33.082,33.078-33.082h230.188l6.543-6.539
		l25.546-25.59l17.809-17.766c-0.023-0.004-0.047-0.004-0.066-0.004l0.074-0.078c-2.446-0.211-4.962-0.36-7.551-0.36H83.418
		C37.394,51.539,0,89.008,0,134.957V407.5c0,46.028,37.394,83.418,83.418,83.418h272.543c45.954,0,83.418-37.39,83.418-83.418
		V292.227l0.058-80.34L439.379,211.941z" style="fill: rgb(255, 255, 255);"></path>
</g>
</svg>
